/* XPM */
static char *_[] = {
/* columns rows colors chars-per-pixel */
"32 32 33 1 ",
"  c #202020",
". c #232323",
"X c gray14",
"o c #282828",
"O c gray16",
"+ c #2A2A2A",
"@ c #2C2C2C",
"# c #2D2D2D",
"$ c gray18",
"% c #2F2F2F",
"& c #313131",
"* c #323232",
"= c gray20",
"- c #343434",
"; c #353535",
": c #373737",
"> c gray22",
", c #393939",
"< c #3A3A3A",
"1 c #3C3C3C",
"2 c #3E3E3E",
"3 c #3F3F3F",
"4 c #414141",
"5 c gray26",
"6 c #434343",
"7 c #444444",
"8 c gray27",
"9 c #464646",
"0 c gray28",
"q c #4C4C4C",
"w c gray31",
"e c gray32",
"r c #585858",
/* pixels */
"99999@  33<<<599<3399@  @@*33<<<",
"99999@  33<3<59933399+  @@*333<<",
"99999@  3333359933399+  @@*33333",
"99999@  3333359933399+  @@*33333",
"99999+  3<<3359933399@  @@*33333",
"33333+  **-33333**<99@  ---*****",
"3333<+  @@*3<<33@@-99@  33-@@@@@",
"3333<+  @@*<<333@@-99@  33-@@@@@",
"                                ",
"                                ",
"@@@@@@@@********   ++@**@@@@@@++",
"99999999rrrrrrrr  +<3qrr99999999",
"99999999rrrrrrrr  +<3qrr99999999",
"33333999999qqqqq  +339qq99933333",
"3333359933399999  +3359999533333",
"3333359933399999  +335999953333<",
"@@@@@@@@33333*@@  X@@@@@333333<<",
"@@@@@@@@33333*@@  X@@@@@333333<<",
"++++++++*****+++   +++++********",
"                                ",
"                                ",
"<<<<<+  **<993<<995<<+  <<399999",
"99999@  339rrq99rre99@  99qrrrrr",
"99999@  339rrq99rre99@  99qrrrrr",
"rrrrr*  3339999999999@  @@-99999",
"rrrrr*  3339999999999@  @@-99999",
"qqqqq@  --<3355533599@  @@-55555",
"33333+  @@@@@-33@@-99@  @@*333<<",
"33<<<+  @@@@@-33@@-99@  @@*333<<",
"3333<+  @@@@@-33@@-99@  @@*333<<",
"333<<+  @@@@@-33@@-99@  @@*333<<",
"333<<+  @@@@@-33@@-99@  @@*333<<"
};
