/* XPM */
static char *E1[] = {
/* columns rows colors chars-per-pixel */
"32 32 30 1 ",
"  c #392018",
". c #202020",
"X c gray16",
"o c #2A2A2A",
"O c #2C2C2C",
"+ c #2D2D2D",
"@ c gray18",
"# c #313031",
"$ c #323232",
"% c gray20",
"& c #343434",
"* c #353535",
"= c #373737",
"- c gray22",
"; c #3A3A3A",
": c #3C3C3C",
"> c #3E3E3E",
", c #3F3F3F",
"< c #5A0000",
"1 c #434343",
"2 c #464646",
"3 c gray31",
"4 c #585858",
"5 c #AD0000",
"6 c #DE0000",
"7 c #FF3C39",
"8 c #BD795A",
"9 c #C68E73",
"0 c #D69E8C",
"q c #DEB2A5",
/* pixels */
"22222O..,,;;;122;,,22O..OO#,,,;;",
"22222O..,,;,;122,,,22o..OO#,,,;;",
"22222O..,,,,,122,,,22o..OO#,,,,,",
"22222O..,,,,,122,,,22o..OO#,,,,,",
"22222o.    ,,122,,,22O..OO#,,,,,",
",,,,,o.    ,,,,,##;22O..===#####",
",,,,;o.  88<<<<<<<<<<O..,,=OOOOO",
",,,,;o.  88<<<<<<<<<<O..,,=OOOOO",
".......  <<5566<<6677<<.........",
".......  <<5566<<6677<<.........",
"OOOOOOO<<5566<<66666677<<OOOOOoo",
"2222222<<5566<<66666677<<2222222",
"22222<<5555<<666666666677<<22222",
",,,,,<<5555<<666666666677<<,,,,,",
",,,,,<<<<<<<<<<<<<<<<<<<<<<,,,,,",
",,,,,<<<<<<<<<<<<<<<<<<<<<<,,,,,",
"OOOOO  9900  9999990000qq  ,,,;;",
"OOOOO  9900  9999990000qq  ,,,;,",
"ooooo  9900  99##9999##qq  #####",
".....  9900  99##9999##qq  .....",
".....  9900  99##9999##00  .....",
";;;;;  9900  99##9999##00  22222",
"22222  9900  999999999900  44444",
"22222  9900  999999999900  44444",
"44444  9999  888888##8888  22222",
"44444  9999  888888##8888  22222",
"33333O.                  O=11111",
",,,,,o.                  O#,;;;;",
",,;;;o..OOOOO=,,OO=22O..OO#,,,;;",
",,;;;o..OOOOO=,,OO=22O..OO#,,,,:",
",,;;,o..OOOOO=,,OO=22O..OO#,,,,;",
",,;;,o..OOOOO=,,OO=22O..OO#,,,:;"
};
