/* XPM */
static char *E2[] = {
/* columns rows colors chars-per-pixel */
"32 32 26 1 ",
"  c #392018",
". c #202020",
"X c gray16",
"o c #2C2C2C",
"O c #2D2D2D",
"+ c #313031",
"@ c #323232",
"# c gray20",
"$ c #353535",
"% c #373737",
"& c #3A3A3A",
"* c #3C3C3C",
"= c #3F3F3F",
"- c #5A0000",
"; c #434343",
": c #464646",
"> c gray31",
", c #585858",
"< c #AD0000",
"1 c #DE0000",
"2 c #FF3C39",
"3 c #BD795A",
"4 c #C68E73",
"5 c #D69E8C",
"6 c #DEB2A5",
"7 c white",
/* pixels */
":::::o..===&&;::===::X..oo+===&&",
":::::o..====&;::===::X..oo+===&&",
":::::o.7777==;::===::X..oo+=====",
":::::o.7777==;::===::X..oo+=====",
":::::77    7777777777o..oo+=====",
"=====77    7777777777o..%%%+++++",
"====&77  33----------77.==%ooooo",
"====&77  33----------77.==%ooooo",
".....77  --<<11--1122--77.......",
".....77  --<<11--1122--77.......",
"ooooo77--<<11--11111122--77oooXo",
":::::77--<<11--11111122--77:::::",
":::77--<<<<--111111111122--77:::",
"===77--<<<<--111111111122--77===",
"===77----------------------77===",
"===77----------------------77===",
"ooo77  4455  444444555566  77===",
"ooo77  4455  444444555566  77===",
"XXX77  4455  44++4444++66  77+++",
"...77  4455  44++4444++66  77...",
"...77  4455  44++4444++55  77...",
"&&&77  4455  44++4444++55  77:::",
":::77  4455  444444444455  77,,,",
":::77  4455  444444444455  77,,,",
",,,77  4444  333333++3333  77:::",
",,,77  4444  333333++3333  77:::",
">>>>>77                  77;;;;;",
"=====77                  77=&&&&",
"==&&&X.777777777777777777o+===&&",
"==&&&X.777777777777777777o+===**",
"==&&=X..ooooo%==oo%::o..oo+====&",
"==&&=X..ooooo%==oo%::o..oo+===*&"
};
