/* XPM */
static char *EN1[] = {
/* columns rows colors chars-per-pixel */
"32 32 160 2 ",
"   c #171720",
".  c #151522",
"X  c #151524",
"o  c #181820",
"O  c #191920",
"+  c #1B1B20",
"@  c #1E1E20",
"#  c #1F1F20",
"$  c #181827",
"%  c #131328",
"&  c #131329",
"*  c #15142E",
"=  c #1B1A29",
"-  c #1C1C2B",
";  c #1B1A2F",
":  c #171632",
">  c #181735",
",  c #1A1937",
"<  c #1D1B3D",
"1  c #1D1D3F",
"2  c #201F39",
"3  c #202020",
"4  c #232323",
"5  c gray14",
"6  c #252525",
"7  c gray15",
"8  c #272728",
"9  c #23232C",
"0  c #22212F",
"q  c #25252E",
"w  c #282828",
"e  c gray16",
"r  c #2A2A2A",
"t  c #2A2A2B",
"y  c #2B2A2B",
"u  c #2B2B2C",
"i  c #29282F",
"p  c #2C2C2C",
"a  c #2D2D2D",
"s  c gray18",
"d  c #2F2F2F",
"f  c #282831",
"g  c #2F2E30",
"h  c #2F2F30",
"j  c #2E2E34",
"k  c #2F2E3C",
"l  c #313031",
"z  c #313131",
"x  c #323232",
"c  c gray20",
"v  c #313136",
"b  c #343434",
"n  c #353535",
"m  c #373737",
"M  c #323238",
"N  c #323239",
"B  c #363638",
"V  c #373738",
"C  c gray22",
"Z  c #393939",
"A  c #3A3A3A",
"S  c #39393E",
"D  c #3C3C3C",
"F  c #3C3C3D",
"G  c #3E3E3E",
"H  c #3F3F3F",
"J  c #201F45",
"K  c #222042",
"L  c #212048",
"P  c #222149",
"I  c #22214A",
"U  c #24234F",
"Y  c #27264E",
"T  c #393840",
"R  c #3A3A43",
"E  c #262553",
"W  c #242256",
"Q  c #282658",
"!  c #2A295D",
"~  c #2B2960",
"^  c #2F2D64",
"/  c #2E2B6B",
"(  c #343060",
")  c #393463",
"_  c #2F2C72",
"`  c #312D78",
"'  c #332F79",
"]  c #363279",
"[  c #34307C",
"{  c #443E73",
"}  c #453F76",
"|  c #414141",
" . c gray26",
".. c #424243",
"X. c #434343",
"o. c #434344",
"O. c #444444",
"+. c #464646",
"@. c gray28",
"#. c #48474B",
"$. c #4C4C4C",
"%. c gray31",
"&. c gray32",
"*. c #585858",
"=. c #4F4F67",
"-. c #626267",
";. c #6B6B79",
":. c #73747A",
">. c #363283",
",. c #3E3A84",
"<. c #39348C",
"1. c #3E398F",
"2. c #3F3A91",
"3. c #413B91",
"4. c #403B93",
"5. c #423C93",
"6. c #474196",
"7. c #494295",
"8. c #4C4893",
"9. c #49439A",
"0. c #564D9D",
"q. c #58509F",
"w. c #717182",
"e. c #7A7A83",
"r. c #7B7B8E",
"t. c #4F49A2",
"y. c #524DA5",
"u. c #5B52A0",
"i. c #5E54A2",
"p. c #5A52A5",
"a. c #5A54AD",
"s. c #6057A6",
"d. c #6359A5",
"f. c #655BA9",
"g. c #665DAB",
"h. c #685EA8",
"j. c #695FAA",
"k. c #625CB3",
"l. c #6C62AB",
"z. c #7167AE",
"x. c #6A62B3",
"c. c #6862BB",
"v. c #6C64B8",
"b. c #6D65BA",
"n. c #756BB1",
"m. c #7068B9",
"M. c #716AC2",
"N. c #726CC4",
"B. c #7770C7",
"V. c #7A74C8",
"C. c #8379BA",
"Z. c #92929C",
"A. c #A8A8B4",
"S. c #8D82C1",
"D. c #9087CE",
"F. c #9A90CA",
"G. c #9F94CD",
"H. c #9E95D2",
"J. c #A499D0",
"K. c #ADA2D6",
/* pixels */
"+.+.+.+.+.p 3 3 H H A A A  .+.+.A H H +.+.p 3 3 p p x H H A A A ",
"+.+.+.+.+.p 3 3 H H A D A  .+.+.H H H +.+.y 3 3 p p x H H H A A ",
"+.+.+.+.+.p 3 3 H H H H H  .+.+.H H H +.+.y 3 3 p p x H H H H H ",
"+.+.+.+.+.p 3 3 H H H H H  .+.+.H H H +.+.y 3 3 p p x H H H H H ",
"+.+.+.+.+.y 3 3 H A A H H  .+.+.H H H +.+.p 3 3 p p x H H H H H ",
"H H H H H y 3 3 x x b H H H H H x x A +.+.p 3 3 b b b x x x x x ",
"H H H H A y # 3 p p x H A A H H p p b +.+.p 3 3 H H b p p p p p ",
"H H H H A y # 3 p p x A A H H H p p b +.+.p 3 3 H H b p p p p p ",
"3 3 3 3 3 3 3 3 3 6 x y 6 x y 3 3 3 3 3 3 3 3 3 3 3 3 3 3 3 3 3 ",
"3 3 3 3 3 3 3 3 6 -.A.y 6 e.Z.y 3 3 3 3 3 3 3 3 3 3 3 3 3 3 3 # ",
"p p p p p p y y h #.:.h h ;.r.x 3 3 3 y y p x x p p p p p p y y ",
"+.+.+.+.+.o.S & * * * * & =.w.+.3 3 y A H %.*.*.+.+.+.+.+.+.+.+.",
"+.+.+.+.o.T : Q 1.1.1.1.] K 0  .# # y A H %.*.*.+.+.+.+.+.+.+.+.",
"H H H H T < 2.6.d.j.l.j.x.b.} k # 3 y D H +.%.%.+.+.+.H H H H H ",
"H H H B * 3.f.b.j.C.K.H.B.V.m.)   # y H H  .+.+.+.+. .H H H H D ",
"H H H N > 5.f.d.n.K.K.K.H.D.S.{ = # y H H  .+.+.+.+. .H H H H A ",
"p p u & ^ t.M.g.z.G.K.K.K.J.C.d.) O 6 p p p p p H H H H H H A A ",
"p p u % ^ c.N.b.d.n.F.F.F.C.d.i.( O 6 p p p p p H H H H H H A A ",
"y y 6 % ~ 3.k.q.u.d.d.d.d.f.s.7.W O 3 y y y y y x x x x x x x x ",
"3 # # . U >.<.3.9.0.0.0.0.p.y.' L O 3 3 3 3 3 3 3 3 3 3 3 # # # ",
"3 3 3 # & ! >.3.a.<.<.<.<.<.<.W O 3 3 3 3 3 3 3 3 3 3 3 3 3 3 3 ",
"A A A B - U ! [ >.<.3.3.>.[ _ Y N +. .A A y 3 3 A A H +.+.+.+.+.",
"+.+.+.+.o.$ L E ~ ' ,.8./ L 2 v *.*.&.+.+.p 3 3 +.+.%.*.*.*.*.*.",
"+.+.+.+.+.y . , J J J J 1 ; u H *.*.&.+.+.p 3 3 +.+.%.*.*.*.*.*.",
"*.*.*.*.*.x # . 0 0 q f f h H +.+.+.+.+.+.p 3 3 p p b +.+.+.+.+.",
"*.*.*.*.*.x 3 3 H H H +.+.+.+.+.+.+.+.+.+.p 3 3 p p b +.+.+.+.+.",
"%.%.%.%.%.p 3 3 b b A H H  . . .H H  .+.+.p 3 3 p p b  . . . . .",
"H H H H H y 3 3 p p p p p b H H p p b +.+.p 3 3 p p x H H H A A ",
"H H A A A y 3 3 p p p p p b H H p p b +.+.p 3 3 p p x H H H A A ",
"H H A A A y 3 3 p p p p p b H H p p b +.+.p 3 3 p p x H H H A A ",
"H H A A H y 3 3 p p p p p C H H p p b +.+.p 3 3 p p x H H H A A ",
"H H A A H y 3 3 p p p p p b H H p p b +.+.p 3 3 p p x H H H A A "
};
