/* XPM */
static char *EN2[] = {
/* columns rows colors chars-per-pixel */
"32 32 212 2 ",
"   c #121125",
".  c #1B1B20",
"X  c #1F1F20",
"o  c #1B1A24",
"O  c #181827",
"+  c #131328",
"@  c #15142E",
"#  c #16152E",
"$  c #1C1B2A",
"%  c #1D1D2E",
"&  c #181733",
"*  c #191835",
"=  c #202020",
"-  c #222222",
";  c gray14",
":  c #252525",
">  c gray15",
",  c #232328",
"<  c #272628",
"1  c #272728",
"2  c #25242F",
"3  c #282828",
"4  c #292829",
"5  c gray16",
"6  c #2A2A2A",
"7  c gray17",
"8  c #2B2B2C",
"9  c #2C2A2C",
"0  c #2C2C2C",
"q  c #2D2C2D",
"w  c #2D2D2D",
"e  c gray18",
"r  c #2F2F2F",
"t  c #2A2A35",
"y  c #252439",
"u  c #252539",
"i  c #2F2F3D",
"p  c #313131",
"a  c #323232",
"s  c #333233",
"d  c gray20",
"f  c #313134",
"g  c #343434",
"h  c #353535",
"j  c #343437",
"k  c #353537",
"l  c gray21",
"z  c #373737",
"x  c #313239",
"c  c #363638",
"v  c #35373D",
"b  c gray22",
"n  c #393939",
"m  c #39393A",
"M  c #3A3A3A",
"N  c #38383C",
"B  c #3C3B3C",
"V  c #3C3C3C",
"C  c #3C3C3D",
"Z  c gray24",
"A  c #3E3D3E",
"S  c #3E3E3E",
"D  c #3F3F3F",
"F  c #1D1C42",
"G  c #201F47",
"H  c #212048",
"J  c #323344",
"K  c #393B40",
"L  c #3E3E40",
"P  c #3F3F40",
"I  c #232050",
"U  c #252352",
"Y  c #242256",
"T  c #262556",
"R  c #27245D",
"E  c #2A275A",
"W  c #29285A",
"Q  c #3B385C",
"!  c #3D3A5C",
"~  c #2A2664",
"^  c #2A2766",
"/  c #2B2960",
"(  c #2F2C6D",
")  c #323167",
"_  c #393463",
"`  c #332F79",
"'  c #343074",
"]  c #383378",
"[  c #414141",
"{  c #404042",
"}  c #424142",
"|  c #434343",
" . c #414246",
".. c #444444",
"X. c #464646",
"o. c gray28",
"O. c #4B4A4E",
"+. c #4C4C4C",
"@. c #4C4C4F",
"#. c #4F4D4F",
"$. c gray31",
"%. c #4B4A52",
"&. c #4E4E51",
"*. c #4A4B57",
"=. c #4D4F54",
"-. c #46465A",
";. c #4E4F5E",
":. c #525552",
">. c #515055",
",. c #545654",
"<. c #565557",
"1. c #575957",
"2. c #58575C",
"3. c #585858",
"4. c #59595D",
"5. c #5A595E",
"6. c gray36",
"7. c #5E5C5E",
"8. c #5E5D5E",
"9. c #545665",
"0. c #5C5D60",
"q. c #5C5D61",
"w. c #5E5E62",
"e. c #5F5E63",
"r. c #636163",
"t. c #636464",
"y. c #646564",
"u. c #60626B",
"i. c #646468",
"p. c #62626F",
"a. c #67676C",
"s. c #68686B",
"d. c #6C6F6F",
"f. c gray43",
"g. c #6C706E",
"h. c #686772",
"j. c #686A72",
"k. c #6F6F75",
"l. c #727575",
"z. c #727278",
"x. c #757779",
"c. c #777A7C",
"v. c #7A797D",
"b. c #39348C",
"n. c #3E398F",
"m. c #413B91",
"M. c #433D92",
"N. c #433D95",
"B. c #443F97",
"V. c #4C4785",
"C. c #534B8C",
"Z. c #47429A",
"A. c #4E4698",
"S. c #4B469E",
"D. c #544D9A",
"F. c #534B9C",
"G. c #7D7E8F",
"H. c #524DA5",
"J. c #5850A1",
"K. c #5F57A1",
"L. c #5650A9",
"P. c #5953A8",
"I. c #5A54AD",
"U. c #6359A5",
"Y. c #645AA7",
"T. c #605AAF",
"R. c #675EAD",
"E. c #685EA8",
"W. c #645FB7",
"Q. c #7167AE",
"!. c #6960B1",
"~. c #6B63B5",
"^. c #6C64B8",
"/. c #756BB1",
"(. c #7069C0",
"). c #716AC2",
"_. c #736DC6",
"`. c #8278BE",
"'. c #887DBD",
"]. c #877EC3",
"[. c #857ECB",
"{. c #828488",
"}. c #87888E",
"|. c #898B8F",
" X c #878790",
".X c #88889F",
"XX c #8F9197",
"oX c #8F9098",
"OX c #909198",
"+X c #92929C",
"@X c #97999E",
"#X c #9B9CA4",
"$X c #9697A8",
"%X c #9F9FA8",
"&X c #9EA0A8",
"*X c #9EA0AE",
"=X c #A6A6B0",
"-X c #A9ABB4",
";X c #A7A8BD",
":X c #B0B0BA",
">X c #B0B1BB",
",X c #8D82C1",
"<X c #8C84CD",
"1X c #9187C4",
"2X c #968BC7",
"3X c #9F94CD",
"4X c #A298D3",
"5X c #A69BD4",
"6X c #B6B7C2",
"7X c #BBBCCB",
"8X c #BDBECF",
"9X c #ADA2D6",
/* pixels */
"X.X.X.X.X.0 = = D D M M M } X.X.M D D X.X.0 = = 0 0 p D D D M M ",
"X.X.X.X.X.0 = = D D M M M } X.X.D D D X.X.7 = = 0 0 p D D D M M ",
"X.X.X.X.X.0 = = D D D D D } X.X.D D D X.X.7 = = 0 0 p D D D D D ",
"X.X.X.X.X.0 = = D D D D D } X.X.D D D X.X.7 = = 0 0 p D D D D D ",
"X.X.X.X.X.7 = = D M V D D } X.X.D D D X.X.0 = = 0 0 p D D D D D ",
"D D D D D 7 = = p p l D D D D D p p M X.X.0 = = l l l p p p p p ",
"D D D D M 7 X = 0 0 p D M D D D 0 0 l X.X.0 = = D D l 0 0 0 0 0 ",
"D D D D M 7 X = 0 0 p V M l M D 0 0 l X.X.0 = = D D l 0 0 0 0 0 ",
"= = = = = = = = }  Xk.7 @. X4.7 > = = = = = = = = = = = = = = = ",
"= = = = = = = O.oX7X$X0 h.8X6X+X4.> = = = = = = = = = = = = = X ",
"0 0 0 0 0 0 0 &.>X*X.X7 p.;X|.XX#X2.> 7 7 0 p p 0 0 0 0 0 0 7 7 ",
"X.X.X.X.X.} l 2 *.;.-.o i G.c.:.f.OX4.M D @.3.3.X.X.X.X.X.X.X.X.",
"X.X.X.X.X.L $ F ~ ~ ~ ~ I y j.g.:.x.}.q.M @.3.3.X.X.X.X.X.X.X.X.",
"D D D D D y ~ ] F.F.F.F.D.V.! =.:.1.=Xz.l X.@.@.X.X.X.D D D D D ",
"D D D M % ' J.T.U.Q.2X].).).K.Q K 6.v.%Xq.D X.X.X.X.} D D D D D ",
"D D D c @ m.Y.R.Q.3X9X5X<X[.`._ x 6.r.>Xz.D X.X.X.X.} D D D D V ",
"0 0 0 o U N.^.U./.9X9X9X5X4X,XC.Q  .6.@Xi.0 0 0 D D D D D D M M ",
"0 0 8   ) W._.~.U.'.9X9X9X1XQ.U._ v 6.t.&X>.0 0 D D D D D D M M ",
"7 7 >   / H.).R.U.E./././.Q.U.F.E %.y.,.-Xa.7 7 p p p p p p p p ",
"= = X   / b.Z.M.A.U.U.U.U.!.P.n.Y u.l.D {.q.> = = = = = = = X X ",
"= = = . & ( b.Z.I.m.m.m.m.m.B.R J s.,.7 p L > = = = = = = = = = ",
"M M M l + W ( b.B.b.b.b.b.b.b.Y x f.@.p M 7 = = M M D X.X.X.X.X.",
"X.X.X.X.N & W / ( b.S.L.` / G $ < 6.@.M X.0 = = X.X.@.3.3.3.3.3.",
"X.X.X.X.X., @ H W / / ) T * 9.q.B D 9 M X.0 = = X.X.@.3.3.3.3.3.",
"3.3.3.3.3.p .   + + + +   t p D X.X.} X.X.0 = = 0 0 l X.X.X.X.X.",
"3.3.3.3.3.p = = D D D X.X.X.X.X.X.X.X.X.X.0 = = 0 0 l X.X.X.X.X.",
"@.@.@.@.@.0 = = l l M D D } } } D D } X.X.0 = = 0 0 l } } } } } ",
"D D D D D 7 = = 0 0 0 0 0 l D D 0 0 l X.X.0 = = 0 0 p D D M M M ",
"D D M M M 7 = = 0 0 0 0 0 l D D 0 0 l X.X.0 = = 0 0 p D D D M M ",
"D D V V M 7 = = 0 0 0 0 0 l D D 0 0 l X.X.0 = = 0 0 p D D D D M ",
"D D V M M 7 = = 0 0 0 0 0 l D D 0 0 l X.X.0 = = 0 0 p D D D D M ",
"D D V M V 7 = = 0 0 0 0 0 l D D 0 0 l X.X.0 = = 0 0 p D D D M M "
};
