/* XPM */
static char *EN3[] = {
/* columns rows colors chars-per-pixel */
"32 32 125 2 ",
"   c #161622",
".  c #1D1D22",
"X  c #14132B",
"o  c #1E1E2B",
"O  c #171632",
"+  c #1B1B36",
"@  c #1B1A3B",
"#  c #202020",
"$  c #25252B",
"%  c #2C2C2C",
"&  c #232336",
"*  c #2C2C32",
"=  c #2E2E3C",
"-  c #302F31",
";  c #343334",
":  c #343539",
">  c #383638",
",  c #37383F",
"<  c #3C3C3C",
"1  c #1E1D42",
"2  c #222042",
"3  c #23224B",
"4  c #333344",
"5  c #3F3E46",
"6  c #252355",
"7  c #2F2D55",
"8  c #282658",
"9  c #2A295D",
"0  c #333155",
"q  c #2D2B62",
"w  c #2E2B6D",
"e  c #343060",
"r  c #393463",
"t  c #332F79",
"y  c #36327C",
"u  c #443E73",
"i  c #3F4146",
"p  c #464646",
"a  c #474847",
"s  c #474649",
"d  c #494749",
"f  c #4D4D4E",
"g  c #4E514F",
"h  c #4F4F54",
"j  c #504E50",
"k  c #535553",
"l  c #565856",
"z  c #54545B",
"x  c #585658",
"c  c #575A58",
"v  c #5A5A5A",
"b  c #5C5C60",
"n  c #4A437E",
"m  c #636263",
"M  c #676867",
"N  c #67676C",
"B  c #6B6B6B",
"V  c #626370",
"C  c #6B6B79",
"Z  c #6E7273",
"A  c #737474",
"S  c #747778",
"D  c #767979",
"F  c #7A7E7E",
"G  c #363283",
"H  c #3E3A84",
"J  c #39348C",
"K  c #3E398F",
"L  c #3D3890",
"P  c #413C93",
"I  c #494295",
"U  c #4C4893",
"Y  c #4A449A",
"T  c #564D9D",
"R  c #7C7C84",
"E  c #737488",
"W  c #7F7F94",
"Q  c #4F49A2",
"!  c #524DA5",
"~  c #5C53A3",
"^  c #5A54AD",
"/  c #6359A5",
"(  c #665DAB",
")  c #685EA8",
"_  c #605AB2",
"`  c #6A60AC",
"'  c #7167AE",
"]  c #6A62B3",
"[  c #6C65BA",
"{  c #756BB1",
"}  c #7068B9",
"|  c #726BC3",
" . c #7770C7",
".. c #7A74C8",
"X. c #8379BA",
"o. c #7E8081",
"O. c #868A8B",
"+. c #8B8C92",
"@. c #8C8D9B",
"#. c #92929C",
"$. c #9C9DA7",
"%. c #9A9CAC",
"&. c #9EA0AE",
"*. c #A5AAAD",
"=. c #AAACB4",
"-. c #A4A6B9",
";. c #ABACBB",
":. c #B1B3BD",
">. c #8D82C1",
",. c #948BCF",
"<. c #9B91CB",
"1. c #9E95D2",
"2. c #A499D0",
"3. c #ADADC2",
"4. c #B4B6C2",
"5. c #B7BAC3",
"6. c #BBBCC8",
"7. c #ADA2D6",
"8. c #BFC0CC",
"9. c #C2C4CF",
"0. c #C7C8D6",
"q. c #CCCEDB",
"w. c #D5D6E5",
"e. c #D9DAEA",
"r. c #DBDCED",
/* pixels */
"p p p p p % # # < < < < < p p p < < < p p % # # % % ; < < < < < ",
"p p p p p % # # < < < < < p p p < < < p p % # # % % ; < < < < < ",
"p p p p p % # # < < < < < p p p < < < p p % # # % % ; < < < < < ",
"p p p p p % # # < < < < < p p p < < < p p % # # % % ; < < < < < ",
"p p p p p % # # < < < < < p p p < < < p p % # # % % ; < < < < < ",
"< < < < < % # # ; ; > < < < < < ; ; > p p % # # > > > ; ; ; ; ; ",
"< < < < < % # # % % ; < < < < < % % > p p % # # < < > % % % % % ",
"< < < < < % # # % % ; > < < > ; % % > p p % # # < < > % % % % % ",
"# # # # # # # * < m r.$.% $ R e.#.< > < $ # # # # # # # # # # # ",
"# # # # # # % z w.0.&.W # $ C -.:.w.4.8.R < < > $ # # # # # # # ",
"% % % % % > h ;.f v @.E $ * C -.A k F *.5.q.q.=.v s s % % % % % ",
"p p p p f h ;.X X X X X X o V %.S c k R F k k k O.9.q.b s s < p ",
"p p p f s 3.O 8 K K K K y 2 = g F S k k F S k k k k k 6.0.0.+.; ",
"< < > h 3.1 P Y / ) ' ` ] [ n = Z S l v v F S v m m m f ; % % ; ",
"> > b 4.X P ( [ ) X.7.1. ...} r : A B v m c B M v m x - > < < < ",
"; N :.i @ P ( / { 7.7.7.1.,.>.u 4 Z A v m m c B v k ; > < < < < ",
"- =.p X q Q | ( ' <.7.7.7.2.X./ r , A M v m m B m ; > < < < < < ",
"% - % X q [ | [ / { <.<.<.X./ ~ e , F S v m m l D > > < < < < < ",
"% % $ X q L _ T ~ / / / / ( ~ I 6 5 c D M f j a A > ; ; ; ; ; ; ",
"# # .   3 G J P Y T T T T ~ ! t 7 d c o.M - # # k ; # # # # # # ",
"# # # . X 9 G P ^ J J J J J J 6 * j k A d # # # # # # # # # # # ",
"> > > > o 3 9 t y J P P G t w 0 - % < B d $ # # > > < p p p p p ",
"p p p p p   3 6 q t H U w 3 + z v p p f < % # # p p f c c c c c ",
"p p p p p %   + 1 1 1 1 @ & * f v f k < ; % # # p p f x c c c c ",
"c c c c c ; .   $ $ $ * * : p < < p p p p % # # % % > p p p p p ",
"c c c c c ; # # < < < p p p p p p p p p p % # # % % > p p p p p ",
"f f f f f % # # > > > < < p p p < < p p p % # # % % > p p p p p ",
"< < < < < % # # % % % % % > < < % % > p p % # # % % ; < < < < < ",
"< < < < < % # # % % % % % > < < % % > p p % # # % % ; < < < < < ",
"< < < < < % # # % % % % % > < < % % > p p % # # % % ; < < < < < ",
"< < < < < % # # % % % % % > < < % % > p p % # # % % ; < < < < < ",
"< < < < < % # # % % % % % > < < % % > p p % # # % % ; < < < < < "
};
