/* XPM */
static char *EN4[] = {
/* columns rows colors chars-per-pixel */
"32 32 199 2 ",
"   c #111123",
".  c #171721",
"X  c #121125",
"o  c #1C1C20",
"O  c #1E1E20",
"+  c #1F1F20",
"@  c #191924",
"#  c #1A1925",
"$  c #131328",
"%  c #15142E",
"&  c #16152E",
"*  c #1A1A28",
"=  c #1E1E2E",
"-  c #181733",
";  c #191835",
":  c #202020",
">  c gray13",
",  c #232323",
"<  c #202025",
"1  c #212126",
"2  c gray14",
"3  c #252425",
"4  c #252525",
"5  c #262526",
"6  c #272727",
"7  c gray16",
"8  c #28282A",
"9  c #2A2A2A",
"0  c #2B2A2B",
"q  c gray17",
"w  c #2B2B2C",
"e  c #2C2C2C",
"r  c #2D2D2D",
"t  c #2E2D2F",
"y  c gray18",
"u  c #2F2F2F",
"i  c #202031",
"p  c #272733",
"a  c #232238",
"s  c #252439",
"d  c #313131",
"f  c #313133",
"g  c #323232",
"h  c gray20",
"j  c #343434",
"k  c #353535",
"l  c #373737",
"z  c #313239",
"x  c #373638",
"c  c #32323F",
"v  c #35373D",
"b  c #383738",
"n  c #37383F",
"m  c gray22",
"M  c #383839",
"N  c #393939",
"B  c #39393A",
"V  c #39393B",
"C  c #3A3A3A",
"Z  c #3C3C3C",
"A  c gray24",
"S  c #3E3E3E",
"D  c #3F3F3F",
"F  c #3F403F",
"G  c #1D1C42",
"H  c #201F47",
"J  c #212048",
"K  c #323344",
"L  c #373645",
"P  c #393B40",
"I  c #3F3E46",
"U  c #232050",
"Y  c #252352",
"T  c #242256",
"R  c #262556",
"E  c #27245D",
"W  c #2A275A",
"Q  c #29285A",
"!  c #373459",
"~  c #3B385C",
"^  c #2A2664",
"/  c #2B2960",
"(  c #2E2C6A",
")  c #2D296C",
"_  c #2F2C6D",
"`  c #323167",
"'  c #393463",
"]  c #332F79",
"[  c #343074",
"{  c #3A357D",
"}  c #414141",
"|  c #434343",
" . c #434344",
".. c #444444",
"X. c #464646",
"o. c gray28",
"O. c #47464C",
"+. c #4B4A4E",
"@. c #4C4C4C",
"#. c #4D4C4E",
"$. c #4F4D4F",
"%. c gray31",
"&. c #464553",
"*. c #464655",
"=. c #515052",
"-. c #525154",
";. c #535354",
":. c #545354",
">. c #545654",
",. c #555656",
"<. c #57575B",
"1. c #585858",
"2. c #585958",
"3. c #59595C",
"4. c #5A5A5E",
"5. c gray36",
"6. c #5D5C5D",
"7. c #5E5D5E",
"8. c #5E5F5E",
"9. c #5D5F60",
"0. c #5E5E61",
"q. c #5E5E62",
"w. c #5D5E6E",
"e. c #5F6169",
"r. c #636163",
"t. c #636463",
"y. c #636365",
"u. c #636466",
"i. c #636368",
"p. c #636369",
"a. c #646468",
"s. c #65656B",
"d. c #67676C",
"f. c #6C6F6F",
"g. c gray43",
"h. c #6E6D74",
"j. c #707171",
"k. c #727174",
"l. c #747877",
"z. c #727278",
"x. c #39348C",
"c. c #3E398F",
"v. c #413B91",
"b. c #403B93",
"n. c #443F97",
"m. c #514C8E",
"M. c #4B4497",
"N. c #47429A",
"B. c #4B469E",
"V. c #534B9C",
"C. c #564D9D",
"Z. c #564F9C",
"A. c #595094",
"S. c #7B7E81",
"D. c #524DA5",
"F. c #5750A6",
"G. c #5850A1",
"H. c #5F57A1",
"J. c #5650A9",
"K. c #5A54AD",
"L. c #6359A5",
"P. c #645AA7",
"I. c #605AAF",
"U. c #675EAD",
"Y. c #685EA8",
"T. c #645FB7",
"R. c #7167AE",
"E. c #6A62B3",
"W. c #6B63B5",
"Q. c #6C64B8",
"!. c #756BB1",
"~. c #7069C0",
"^. c #716AC2",
"/. c #736DC6",
"(. c #8278BE",
"). c #887DBD",
"_. c #877EC3",
"`. c #857ECB",
"'. c #7F8283",
"]. c #86898D",
"[. c #868795",
"{. c #92939A",
"}. c #939599",
"|. c #92929C",
" X c #9D9DA8",
".X c #A6A6B0",
"XX c #A9ABB4",
"oX c #AAAAB4",
"OX c #B0B0BA",
"+X c #B1B2BD",
"@X c #8D82C1",
"#X c #8C84CD",
"$X c #9187C4",
"%X c #968BC7",
"&X c #9F94CD",
"*X c #A298D3",
"=X c #A69BD4",
"-X c #A99FD5",
";X c #ADA2D6",
/* pixels */
"X.X.X.X.X.e : : D D C C C | X.X.C D D X.X.e : : e e d D D D C C ",
"X.X.X.X.X.e : : D D C C C | X.X.D D D X.X.q : : e e d D D D C C ",
"X.X.X.X.X.e : : D D D D D | X.X.D D D X.X.q : : e e d D D D D D ",
"X.X.X.X.X.e : : D D D D D | X.X.D D D X.X.q : : e e d D D D D D ",
"X.X.X.X.X.q : : D D D D D | X.X.D D D X.X.e : : e e d D D D D D ",
"D D D D D q : : d d k D D D D D d d C X.X.e : : k k k d d d d d ",
"D D D D C q + : e e d D C C D D e e k X.X.e : : D D k e e e e e ",
"D D D D C q + : e e d C C k C D e e k X.X.e : : D D k e e e e e ",
": : : : : : : : +.|.h.5 <.|.4.q 5 : : : : : : : : : : : : : : : ",
": : : : : : O . p w.*.@ c [.+X Xi.5 : : : : : : : : : : : : : + ",
"e e e e e q * G ^ ^ ^ ^ U s e.].{.i.5 q q e d d e e e e e e q q ",
"X.X.X.X. .a ) { C.C.C.C.C.m.! P g.{.a.C D %.1.1.X.X.X.X.X.X.X.X.",
"X.X.X. .i [ G.I.L.R.%X_.~.~.H.~ P g.{.9.C %.1.1.X.X.X.X.X.X.X.X.",
"D D D C % v.P.U.R.&X;X=X#X`.(.' z 1..Xz.k X.%.%.X.X.X.D D D D D ",
"D D C = Y n.Q.L.!.;X;X;X-X*X@XA.! O.k.XX9.D X.X.X.X.| D D D D D ",
"D D C $ ` T./.W.L.).;X;X;X$XR.L.' I r.OXz.D X.X.X.X.| D D D D Z ",
"e e w $ / D.~.U.L.Y.!.!.!.R.L.V.W n 8.}.a.e e e D D D D D D C C ",
"e e w X / x.n.v.M.L.L.L.L.E.F.c.T v 8.8.XX;.e e D D D D D D C C ",
"q q q < - _ x.N.K.v.v.v.v.v.n.E K y.t.>.XXd.q q d d d d d d d d ",
": : : O $ Q ( x.v.x.x.x.x.x.x.T z '.l.C S.4.5 : : : : : : : + + ",
": : : : O - Q / _ x.B.J.] / H L >.j.;.5 d C 5 : : : : : : : : : ",
"C C C C C < % J Q / / ` R ; &.=.F g.%.d C q : : C C D X.X.X.X.X.",
"X.X.X.X.X.e O   X X X X X @ %.:.5 8.%.C X.e : : X.X.%.1.1.1.1.1.",
"X.X.X.X.X.e : O C d e ;.;.x 9.u.D b q C X.e : : X.X.%.1.1.1.1.1.",
"1.1.1.1.1.d : : D D D X.X.X.k k X.X.X.X.X.e : : e e k X.X.X.X.X.",
"1.1.1.1.1.d : : D D D X.X.X.X.X.X.X.X.X.X.e : : e e k X.X.X.X.X.",
"%.%.%.%.%.e : + k k C D D | | | D D | X.X.e : : e e k | | | | | ",
"D D D D D q : : e e e e e k D D e e k X.X.e : : e e d D D C C C ",
"D D C C C q : : e e e e e k D D e e k X.X.e : : e e d D D D C C ",
"D D C C C q : : e e e e e k D D e e k X.X.e : : e e d D D D D C ",
"D D C C D q : : e e e e e k D D e e k X.X.e : : e e d D D D D C ",
"D D C C D q : : e e e e e k D D e e k X.X.e : : e e d D D D C C "
};
