/* XPM */
static char *PD[] = {
/* columns rows colors chars-per-pixel */
"32 32 192 2 ",
"   c #2F1F1A",
".  c #23201F",
"X  c #35271A",
"o  c #211F23",
"O  c #251B2B",
"+  c #2A1838",
"@  c #37173D",
"#  c #202020",
"$  c #2C2C2C",
"%  c #3D322F",
"&  c #2D2333",
"*  c #2F2139",
"=  c #2D2930",
"-  c #32243C",
";  c #312835",
":  c #333333",
">  c #3B363E",
",  c #3C3C3C",
"<  c #373538",
"1  c #362C29",
"2  c #461F12",
"3  c #481E10",
"4  c #481D1B",
"5  c #53301A",
"6  c #6B2D18",
"7  c #4A1B35",
"8  c #472E26",
"9  c #4A3936",
"0  c #502D2E",
"q  c #733722",
"w  c #654902",
"e  c #524030",
"r  c #46403D",
"t  c #6F472A",
"y  c #62403D",
"u  c #2F0F46",
"i  c #310D4B",
"p  c #2E1242",
"a  c #321345",
"s  c #321B43",
"d  c #321249",
"f  c #391F4B",
"g  c #370F53",
"h  c #390F56",
"j  c #391255",
"k  c #3C105B",
"l  c #371054",
"z  c #342142",
"x  c #372843",
"c  c #3B264A",
"v  c #3C3343",
"b  c #3E2253",
"n  c #4B175E",
"m  c #403647",
"M  c #443E49",
"N  c #402552",
"B  c #4A3658",
"V  c #552E5C",
"C  c #792F40",
"Z  c #762C5F",
"A  c #411263",
"S  c #49146D",
"D  c #491D68",
"F  c #4D1673",
"G  c #4E1973",
"H  c #54177E",
"J  c #501776",
"K  c #601E6C",
"L  c #5C226E",
"P  c #512C6B",
"I  c #6C227F",
"U  c #6E3D6F",
"Y  c #464546",
"T  c #4E4E4E",
"R  c #48414D",
"E  c #504B53",
"W  c #555354",
"Q  c #585858",
"!  c #4E4454",
"~  c #765A4F",
"^  c #5D4B68",
"/  c #675273",
"(  c #636161",
")  c #6D6B6B",
"_  c #666068",
"`  c #757373",
"'  c #8F3C20",
"]  c #926C03",
"[  c #A17510",
"{  c #9A4B31",
"}  c #A54E31",
"|  c #A55639",
" . c #9B682A",
".. c #C15034",
"X. c #D65A31",
"o. c #C4613C",
"O. c #865543",
"+. c #A96851",
"@. c #B96E53",
"#. c #8B4F7B",
"$. c #997C71",
"%. c #D67752",
"&. c #C67156",
"*. c #E57C54",
"=. c #EA7B51",
"-. c #BB8A05",
";. c #DCB13D",
":. c #B98F7F",
">. c #C99B56",
",. c #EA8057",
"<. c #ED835A",
"1. c #E1805A",
"2. c #C68B7B",
"3. c #CF946E",
"4. c #EC8861",
"5. c #EFC142",
"6. c #5A1A85",
"7. c #5D1B8B",
"8. c #551780",
"9. c #641F8A",
"0. c #631C93",
"q. c #681D9B",
"w. c #6A2B94",
"e. c #692399",
"r. c #772898",
"t. c #6E2D8B",
"y. c #6C1EA2",
"u. c #721FAB",
"i. c #6E22A3",
"p. c #7420AD",
"a. c #7929A8",
"s. c #7721B2",
"d. c #7922B5",
"f. c #7D23BB",
"g. c #7E32B1",
"h. c #773CA0",
"j. c #754B90",
"k. c #903B9E",
"l. c #873892",
"z. c #883DAE",
"x. c #8125BE",
"c. c #832ABE",
"v. c #8432B0",
"b. c #994F9B",
"n. c #A24F98",
"m. c #A14D96",
"M. c #914DB0",
"N. c #8425C4",
"B. c #8428C3",
"V. c #882CC7",
"C. c #8A2ACC",
"Z. c #8727C8",
"A. c #902FCC",
"S. c #943DCF",
"D. c #8F2CD2",
"F. c #912DD4",
"G. c #9530D9",
"H. c #9A3ADB",
"J. c #9536D5",
"K. c #8937C0",
"L. c #9D41C0",
"P. c #9C40D9",
"I. c #9A59C7",
"U. c #A041CC",
"Y. c #A150D8",
"T. c #B25FD4",
"R. c #A148DD",
"E. c #AB6ED4",
"W. c #A751E1",
"Q. c #AD60E2",
"!. c #938C8C",
"~. c #999696",
"^. c #948B96",
"/. c #A49B93",
"(. c #AAA7A7",
"). c #CF8D95",
"_. c #CF8B8A",
"`. c #D1A08D",
"'. c #D5A998",
"]. c #E0AF9C",
"[. c #ECB9A5",
"{. c #F7CEBD",
"}. c #C6BDC5",
"|. c #C4C1C2",
" X c #CAC6C6",
".X c #DAD6D6",
"XX c #DDDCDC",
"oX c #D5D2D2",
"OX c #E0DEDE",
"+X c #DEDAE1",
"@X c #E3E2E2",
"#X c #F6F6F6",
/* pixels */
", , , , , : $ $ # # $ Y Y , , , Y Y Y , , , , , # # $ Y Y Y Y Y ",
", , , , , : $ $ + u a d d d d > Y Y Y , , , , , # # $ Y Y Y Y Y ",
", , , , , a a a t [ M.I.E.E.E.D c Y Y , , , , , # # $ Y Y Y Y Y ",
", , , x f 0.q.q.l.m.P.S.h.M.W.I.M.f v , , , , , # # $ Y Y Y Y Y ",
", , , f i H H H 6.7.7.6.S #._.T.Y.h.P z > , , , # # $ Y Y Y Y Y ",
": : : s i z z z p i H 7.i.b.).U.G.R.v.w.N - : : # # $ , , , , , ",
"$ $ $ * s < , , + i s.Z.G.H.P.n.n.H.H.P.7.G * & # # $ , , , , , ",
"$ $ $ $ $ < , v p g l.k.F.D.D.+.+.P.J.F.M.b.g s O O & v > , , , ",
"# # # # # # O i k S  . .s.s.s.s.s.s.s.s.3.>.S A A A A A d O o # ",
"# # # o o o O g A S F F G G G G G F F F F F F 0.f.f.f.f.0.i O # ",
"$ $ $ s i i S G.e.S C.H.Q.Q.Q.Q.W.G.G.G.Z.N.N.7.i i i i s $ $ $ ",
"Y v d 0.f.f.f.N.C.F.A l j j j j j g g g g h F A i m Y Y Y Y Y Y ",
"Y Y M b k k k k k k ! _ }.2...5 y +X!.9 @.&.4 9 M Y Y Y Y Y Y Y ",
", , , v v v m m M M W ( (.2.=.o.&.#X/.e %.%.3 8 Y Y Y , , , , , ",
", , , , , Y Y Y Y Y c B ) $.:.1.4.[.3.@.*.,.@.O.8 r Y , , , , , ",
", , , , , Y Y Y v c 6.9.t./ ` '.[.{.[.`.].'.$.~ 9 Y Y , , , , , ",
", , , , , , > x A H N.Z.s.w.U ^.(.XX.XoX@XoXW R + = $ $ $ $ $ $ ",
", , , , , , v i 7.N.F.C.0.y.p.^ ) |.XX#X#X@XW B j - $ $ $ $ $ $ ",
": : : : : : ; i 7.f.F.c.i 7.Z.^ )  XOX#X#XXXW B S - $ $ $ $ $ $ ",
"# # # # # # O a L r.L.z.a 9.G./ _ !.|.#XXX|.E B V & # # # # # # ",
"# # # # # # X w ] -.5.;.w U A.N.a.W ~..X) E i t -.5 . # # # # # ",
"Y Y Y Y Y , % 3 q { { } X.' 3 9.w.W ~..X) E i C X.6 2 , , , , , ",
"Q Q Q Q Q T 9 3 | ,.,.=.X.' 3 r.a.W ` ~.( E i C X.6 2 Y Y Y Y Y ",
"Q Q Q Q Q T 9 3 | <.<.=.X.' 3 a.B.K.j.( z.g.i C X.6 2 Y Y Y Y Y ",
"Y Y Y Y Y < = @ 0 q q q 6 Z v.x.Z.G.w.f c.V.i 7 6 X 1 Q Q Q Q Q ",
"Y Y Y Y Y < & i n K t.t.I a.C.d.d.G.0.i c.V.i @ X . : Q Q Q Q Q ",
"Y Y Y Y Y - s k 0.x.C.C.N.f.s.f.B.C.7.i d.Z.0.G + o $ T T T T T ",
", , , , , i k 6.p.C.u.u.d.f.f.C.C.d.8.i y.f.G.e.i O $ , , , , , ",
", , , , , i A p.f.N.6.7.d.B.D.x.d.y.F i 0.p.D.i.A + & , , , , , ",
", , , , , i A p.p.p.S J c.d.p.q.0.0.S i 6.0.p.y.0.k i , , , , , ",
", , , , , a d d u u a d d d d d d d d d d d d d u u p , , , , , ",
", , , , , : $ $ o o $ Y Y < $ $ , , < $ $ $ $ $ # # $ , , , , , "
};
