/* XPM */
static char *T[] = {
/* columns rows colors chars-per-pixel */
"32 32 24 1 ",
"  c #202020",
". c gray16",
"X c #2A2A2A",
"o c #2C2C2C",
"O c #2D2D2D",
"+ c #323232",
"@ c gray20",
"# c #343334",
"$ c #353535",
"% c #373737",
"& c #3A3A3A",
"* c #3C3C3C",
"= c #3F3F3F",
"- c #434343",
"; c #444444",
": c #454445",
"> c #464646",
", c gray31",
"< c #575557",
"1 c #585858",
"2 c #6C6C6C",
"3 c gray58",
"4 c #AFAFAF",
"5 c gray82",
/* pixels */
">>>>>o  ==&&;;;;>>>>>o  oo+==&&&",
">>>>>o  ==&*;;;;>>>>>o  oo+===&&",
">>>>>o  ====>>5533>>>o  oo+=====",
">>>>>o  ====>>5533>>>o  oo+=====",
">>>>>X  ====>>5533##>o  oo+=====",
"=====X  ++$=>>5533##>o  $$$+++++",
"====&X;>>>>>##4422##>>>>##$ooooo",
"====&X;>;;>;##4422##>>>>##$ooooo",
"      >;2244553322334455##      ",
"      >>2244553322334455##      ",
"oooooo##3333332233223333##ooooXX",
">>>>>>##3333332233223333##>>>>>>",
">>>>>>+#######3322########>>>>>>",
"=====>+#######3322########>=====",
"=====->>===>##3322##=->>>>-=====",
"=====->>===>##3322##=->>>>-=====",
"oooooooo===*##3322##oooo==*===&*",
"oooooooo===*++3322##oooo====&*&&",
"XXXXXX>>>>>>;;;;>>>>>>>>>>++++++",
"      >>>>>>;;;;>>>>>>>>>>      ",
"    >>22334444555544443322>>    ",
"&&&&>>22334444555544443322>>>>>>",
">>>>##44333333333333333344##1111",
">>>>##44333333333333333344##1111",
"11>>>>>>################>>>>;;>>",
"11>>>>>>################>>>>;;>>",
",,>>444422<<4422444422<<4444;;--",
"==>>444422<<4422444422<<4444;>==",
"==++22334422<<33<<3322332222##==",
"*=#+22334422<<33<<3322332222##==",
"**#+##########################==",
"**++##########################=="
};
